<svg xmlns="http://www.w3.org/2000/svg" width="512" height="512" style="" viewBox="0 0 512 512" data-svgdocument="" id="_IlNL_KDA8p4ovrHBSTTtq" class="fl-svgdocument" x="0" y="0" xmlns:xlink="http://www.w3.org/1999/xlink"><defs id="_xNcz5J_Wnte_E_lbHwRwu" transform="matrix(0.8646893852875717, 0, 0, 0.8646893852875717, 30.69562109113179, 28.507129442822766)"/><path text="NAME" text-anchor="middle" font-size="100" letter-spacing="0" side="left" offset="0.5" dx="0" dy="0" space="preserve" href="" font-family="Fjalla One" font-scale="contain" transform="matrix(1.06851420232793, 0, 0, 1.06851420232793, 253.25786061145234, 464.00000000000006)" x="0" y="0" fill="#000000" data-fl-textpath="" id="_jLOKaPOS81O7Tin6v9Jih" d="M-99.461796875 0L-99.461796875-83.4L-89.211796875-83.4L-68.991796875-27.59L-68.701796875-27.59Q-68.85179687499999-29.54 -69.091796875-31.93Q-69.33179687500001-34.33 -69.531796875-37.38Q-69.721796875-40.43 -69.871796875-44.29Q-70.021796875-48.14 -70.021796875-52.98L-70.021796875-52.98L-70.021796875-83.4L-58.691796875-83.4L-58.691796875 0L-69.041796875 0L-89.161796875-54.35L-89.55179687500001-54.35Q-89.401796875-52.15 -89.161796875-49.58Q-88.911796875-47.02 -88.721796875-43.55Q-88.521796875-40.09 -88.38179687499999-35.47Q-88.231796875-30.86 -88.231796875-24.51L-88.231796875-24.51L-88.231796875 0L-99.461796875 0ZM-50.6325 0L-35.2525-83.4L-20.7025-83.4L-5.272500000000001 0L-18.0625 0L-20.3625-14.94L-35.5925-14.94L-37.792500000000004 0L-50.6325 0ZM-34.1325-24.46L-21.8225-24.46L-27.6825-66.02L-28.2225-66.02L-34.1325-24.46ZM 2.784296875 0L 2.784296875-83.4L 19.284296875-83.4L 27.294296875-51.12Q 28.564296874999997-45.75  29.294296875-40.89Q 30.034296875000003-36.04  30.714296875000002-31.74L 30.714296875000002-31.74L 31.104296875000003-31.74Q 31.784296875000003-36.04  32.524296875-40.89Q 33.254296875-45.75  34.524296875-51.12L 34.524296875-51.12L 42.774296875-83.4L 58.934296875-83.4L 58.934296875 0L 47.114296875 0L 47.114296875-27.59Q 47.114296875-33.94  47.244296875-39.79Q 47.364296875-45.65  47.554296875-50.56Q 47.754296875-55.47  47.994296875-59.23Q 48.244296875-62.99  48.434296875-65.19L 48.434296875-65.19L 47.514296875-65.19L 34.914296875-10.74L 26.904296875-10.74L 14.204296875-65.19L 13.284296874999999-65.19Q 13.474296875-62.99  13.724296875-59.23Q 13.964296874999999-55.47  14.164296875000002-50.56Q 14.354296875-45.65  14.474296875-39.79Q 14.604296875-33.94  14.604296875-27.59L 14.604296875-27.59L 14.604296875 0L 2.784296875 0ZM 73.194453125 0L 73.194453125-83.4L 104.10445312499999-83.4L 104.10445312499999-73.44L 85.844453125-73.44L 85.844453125-48.49L 99.954453125-48.49L 99.954453125-38.53L 85.844453125-38.53L 85.844453125-9.96L 104.594453125-9.96L 104.594453125 0L 73.194453125 0Z"/><path text="COMPANY" text-anchor="middle" font-size="100" letter-spacing="0" side="left" offset="0.5" dx="0" dy="0" space="preserve" href="" font-family="Fjalla One" font-scale="contain" transform="matrix(1.06851420232793, 0, 0, 1.06851420232793, 253.5510553171957, 362.38820156460434)" x="0" y="0" fill="#000000" data-fl-textpath="" id="_9caKcu1X_Hca41xFJd24d" d="M-156.9556640625 0.73L-156.9556640625 0.73Q-158.9156640625 0.73 -161.1856640625 0.42Q-163.4556640625 0.1 -165.72566406250002-0.93Q-167.9956640625-1.95 -170.0656640625-3.83Q-172.1456640625-5.71 -173.7256640625-8.79Q-175.3156640625-11.87 -176.2656640625-16.38Q-177.2256640625-20.9 -177.2256640625-27.15L-177.2256640625-27.15L-177.2256640625-56.69Q-177.2256640625-62.99 -176.2456640625-67.46Q-175.2656640625-71.92 -173.6556640625-74.98Q-172.0456640625-78.03 -169.9456640625-79.83Q-167.8456640625-81.64 -165.5956640625-82.59Q-163.3556640625-83.54 -161.13566406249998-83.84Q-158.9156640625-84.13 -157.0056640625-84.13L-157.0056640625-84.13Q-152.0256640625-84.13 -148.6856640625-82.74Q-145.3356640625-81.35 -143.3056640625-78.93Q-141.2856640625-76.51 -140.4256640625-73.29Q-139.5756640625-70.07 -139.5756640625-66.46L-139.5756640625-66.46Q-139.5756640625-63.77 -139.8456640625-61.5Q-140.1156640625-59.23 -140.6456640625-56.49L-140.6456640625-56.49L-150.9056640625-56.49L-150.9056640625-60.74Q-150.9056640625-67.63 -152.4156640625-71.04Q-153.9256640625-74.46 -156.8556640625-74.46L-156.8556640625-74.46Q-158.6156640625-74.46 -159.9356640625-73.78Q-161.2556640625-73.1 -162.13566406249998-71.46Q-163.0156640625-69.82 -163.47566406250002-67.14Q-163.9356640625-64.45 -163.9356640625-60.45L-163.9356640625-60.45L-163.9356640625-22.36Q-163.9356640625-18.46 -163.5756640625-15.87Q-163.2056640625-13.28 -162.3756640625-11.72Q-161.5456640625-10.16 -160.2056640625-9.5Q-158.8656640625-8.84 -156.9556640625-8.84L-156.9556640625-8.84Q-155.7356640625-8.84 -154.6156640625-9.4Q-153.4956640625-9.96 -152.63566406249998-11.16Q-151.7856640625-12.35 -151.2656640625-14.18Q-150.7556640625-16.02 -150.7556640625-18.51L-150.7556640625-18.51L-150.7556640625-26.66L-139.1856640625-26.66L-139.1856640625-18.95Q-139.1856640625-8.89 -143.7756640625-4.1Q-148.3656640625 0.68 -156.9556640625 0.73ZM-110.7625390625 0.73L-110.7625390625 0.73Q-112.7725390625 0.73 -115.1125390625 0.42Q-117.4525390625 0.1 -119.7525390625-0.93Q-122.0425390625-1.95 -124.1725390625-3.83Q-126.2925390625-5.71 -127.9325390625-8.79Q-129.5625390625-11.87 -130.5425390625-16.38Q-131.5225390625-20.9 -131.5225390625-27.15L-131.5225390625-27.15L-131.5225390625-56.69Q-131.5225390625-62.99 -130.5225390625-67.46Q-129.5125390625-71.92 -127.8525390625-74.98Q-126.1925390625-78.03 -124.0725390625-79.83Q-121.9525390625-81.64 -119.6325390625-82.59Q-117.31253906250001-83.54 -115.0125390625-83.84Q-112.7225390625-84.13 -110.7625390625-84.13L-110.7625390625-84.13Q-108.9125390625-84.13 -106.64253906249999-83.86Q-104.3725390625-83.59 -102.1025390625-82.69Q-99.83253906249999-81.79 -97.6825390625-80Q-95.5325390625-78.22 -93.87253906250001-75.17Q-92.2125390625-72.12 -91.2125390625-67.6Q-90.2125390625-63.09 -90.2125390625-56.69L-90.2125390625-56.69L-90.2125390625-27.15Q-90.2125390625-20.95 -91.2325390625-16.48Q-92.2625390625-12.01 -93.9225390625-8.91Q-95.58253906249999-5.81 -97.7525390625-3.93Q-99.9225390625-2.05 -102.1925390625-1Q-104.4725390625 0.05 -106.7125390625 0.39Q-108.9625390625 0.73 -110.7625390625 0.73ZM-110.7625390625-8.79L-110.7625390625-8.79Q-108.9125390625-8.79 -107.5225390625-9.42Q-106.1325390625-10.06 -105.2225390625-11.62Q-104.3225390625-13.18 -103.8525390625-15.75Q-103.39253906249999-18.31 -103.39253906249999-22.22L-103.39253906249999-22.22L-103.39253906249999-60.16Q-103.39253906249999-64.16 -103.8525390625-66.85Q-104.3225390625-69.53 -105.2225390625-71.17Q-106.1325390625-72.8 -107.5225390625-73.49Q-108.9125390625-74.17 -110.7625390625-74.17L-110.7625390625-74.17Q-112.6725390625-74.17 -114.0825390625-73.49Q-115.5025390625-72.8 -116.4325390625-71.17Q-117.3625390625-69.53 -117.8225390625-66.85Q-118.2825390625-64.16 -118.2825390625-60.16L-118.2825390625-60.16L-118.2825390625-22.22Q-118.2825390625-18.31 -117.8225390625-15.75Q-117.3625390625-13.18 -116.4325390625-11.62Q-115.5025390625-10.06 -114.0825390625-9.42Q-112.6725390625-8.79 -110.7625390625-8.79ZM-78.2459765625 0L-78.2459765625-83.4L-61.745976562500005-83.4L-53.7359765625-51.12Q-52.4659765625-45.75 -51.7359765625-40.89Q-50.9959765625-36.04 -50.3159765625-31.74L-50.3159765625-31.74L-49.9259765625-31.74Q-49.2459765625-36.04 -48.5059765625-40.89Q-47.7759765625-45.75 -46.5059765625-51.12L-46.5059765625-51.12L-38.2559765625-83.4L-22.0959765625-83.4L-22.0959765625 0L-33.9159765625 0L-33.9159765625-27.59Q-33.9159765625-33.94 -33.7859765625-39.79Q-33.6659765625-45.65 -33.4759765625-50.56Q-33.2759765625-55.47 -33.0359765625-59.23Q-32.7859765625-62.99 -32.5959765625-65.19L-32.5959765625-65.19L-33.5159765625-65.19L-46.1159765625-10.74L-54.1259765625-10.74L-66.8259765625-65.19L-67.7459765625-65.19Q-67.5559765625-62.99 -67.3059765625-59.23Q-67.0659765625-55.47 -66.8659765625-50.56Q-66.6759765625-45.65 -66.5559765625-39.79Q-66.4259765625-33.94 -66.4259765625-27.59L-66.4259765625-27.59L-66.4259765625 0L-78.2459765625 0ZM-7.8358203125 0L-7.8358203125-83.4L 4.814179687500001-83.4Q 7.204179687500002-83.4  10.0541796875-83.18Q 12.914179687499999-82.96  15.774179687499998-82.15Q 18.624179687500003-81.35  21.2841796875-79.69Q 23.9541796875-78.03  26.0041796875-75.17Q 28.054179687500003-72.31  29.294179687499998-68.02Q 30.544179687499998-63.72  30.544179687499998-57.57L 30.544179687499998-57.57L 30.544179687499998-54.64Q 30.544179687499998-47.95  29.3941796875-43.19Q 28.2441796875-38.43  26.344179687500002-35.18Q 24.4341796875-31.93  21.9241796875-29.98Q 19.414179687500003-28.03  16.7041796875-27.03Q 13.9941796875-26.03  11.2341796875-25.71Q 8.474179687500001-25.39  6.0341796875-25.39L 6.0341796875-25.39L 4.814179687500001-25.39L 4.814179687500001 0L-7.8358203125 0ZM 4.814179687500001-34.67L 5.4441796875-34.67Q 8.864179687499998-34.67  11.204179687500002-35.67Q 13.5541796875-36.67  14.9441796875-38.79Q 16.3341796875-40.92  16.9441796875-44.26Q 17.554179687500003-47.61  17.554179687500003-52.29L 17.554179687500003-52.29L 17.554179687500003-59.81Q 17.554179687500003-63.53  17.0141796875-66.24Q 16.4841796875-68.95  15.0841796875-70.7Q 13.6941796875-72.46  11.3541796875-73.32Q 9.004179687499999-74.17  5.4441796875-74.17L 5.4441796875-74.17L 4.814179687500001-74.17L 4.814179687500001-34.67ZM 33.9133984375 0L 49.2933984375-83.4L 63.8433984375-83.4L 79.27339843749999 0L 66.4833984375 0L 64.1833984375-14.94L 48.9533984375-14.94L 46.753398437499996 0L 33.9133984375 0ZM 50.4133984375-24.46L 62.723398437499995-24.46L 56.863398437499995-66.02L 56.3233984375-66.02L 50.4133984375-24.46ZM 87.3301953125 0L 87.3301953125-83.4L 97.5801953125-83.4L 117.8001953125-27.59L 118.0901953125-27.59Q 117.94019531250001-29.54  117.7001953125-31.93Q 117.46019531249999-34.33  117.2601953125-37.38Q 117.0701953125-40.43  116.9201953125-44.29Q 116.7701953125-48.14  116.7701953125-52.98L 116.7701953125-52.98L 116.7701953125-83.4L 128.1001953125-83.4L 128.1001953125 0L 117.7501953125 0L 97.6301953125-54.35L 97.24019531249999-54.35Q 97.3901953125-52.15  97.6301953125-49.58Q 97.8801953125-47.02  98.0701953125-43.55Q 98.2701953125-40.09  98.41019531250001-35.47Q 98.5601953125-30.86  98.5601953125-24.51L 98.5601953125-24.51L 98.5601953125 0L 87.3301953125 0ZM 152.2694921875 0L 152.2694921875-27.78L 135.4694921875-83.4L 148.2194921875-83.4L 158.4194921875-43.51L 159.0094921875-43.51L 169.1194921875-83.4L 181.80949218749998-83.4L 164.9194921875-27.78L 164.9194921875 0L 152.2694921875 0Z"/><g id="_KdMupmRR5aV7kObiXiNln" transform="matrix(0.83721006647186, 0, 0, 0.83721006647186, 41.674222498286525, 48.00000000000002)"><polygon id="_H3A6izI5cKCMDDDyRgsL3" fill="#f0e662" points="80.562,41.754 52.861,41.754 67.299,0 19.437,58.247 47.14,58.247 32.702,100 " stroke="none" transform="matrix(1.5491869449615479, 0, 0, 1.5491869449615479, 205.5377197265625, 92.81458282470703)"/><circle id="_bzrmGw7gh10KOtdyLj2J_" cx="88.385" cy="88.385" r="88.385" stroke="none" fill="#62daf0" transform="matrix(0.7715089917182922, 0, 0, 0.8293308615684509, 148.74388122558594, 9.160887718200684)"/><circle id="_gJIO5I_nb85tDockFNKj_" cx="88.385" cy="88.385" r="88.385" stroke="none" fill="#62daf0" transform="matrix(0.5250043272972107, 0, 0, 0.5643202662467957, 254.74163818359375, 61.12390899658203)"/><rect id="_rKvyGC83y4ssvjwCtMMEg" x="-0.013" y="0" width="176.769" height="176.769" stroke="none" fill="#f0e662" transform="matrix(0.17395970225334167, 0.07386089116334915, -0.15602906048297882, 0.36757713556289673, 292.1147155761719, 106.89362335205078)"/><path id="_4pwvaYjfWWUPuc_8USGle" fill="#000000" d="M67.263,19.576c-2.28,0-4.522,0.398-6.636,1.156C56.9,8.688,45.633,0,32.524,0  C16.307,0,3.111,13.195,3.111,29.414c0,16.22,13.196,29.416,29.414,29.416h6.792l-7.801,16.89l11.025-1.506l-4.511,9.065  c-0.369,0.653-0.581,1.407-0.581,2.211c0,2.491,2.02,4.511,4.513,4.511c1.87,0,3.474-1.136,4.157-2.757l12.077-24.265l-11.605,1.586  l6.812-14.745H32.524c-11.251,0-20.404-9.154-20.404-20.406c0-11.251,9.153-20.404,20.404-20.404  c10.715,0,19.656,8.368,20.355,19.05l0.589,9.043l6.854-5.931c1.929-1.668,4.394-2.587,6.94-2.587  c5.854,0,10.617,4.762,10.617,10.616c0,5.855-4.764,10.618-10.617,10.618h-0.693l-4.006,9.01h4.699  c10.821,0,19.626-8.806,19.626-19.628C86.889,28.38,78.084,19.576,67.263,19.576z" stroke="none" transform="matrix(2.751934289932251, 0, 0, 2.751934289932251, 132.1643524169922, -2.6530345845557357e-14)"/><rect id="__vfiMf4ZJQmqdfhs5ffSg" x="-0.013" y="0" width="176.769" height="176.769" stroke="none" fill="#62daf0" transform="matrix(0.016614586114883423, 0.1048692911863327, -0.30333957076072693, 0.048034269362688065, 325.89227294921875, 100.38134765625)"/></g></svg>